<?xml version="1.0" encoding="utf-8"?>
<!-- Uploaded to: SVG Repo, www.svgrepo.com, Generator: SVG Repo Mixer Tools -->
<svg width="800px" height="800px" viewBox="0 0 1024 1024" fill="#000000" class="icon"  version="1.1" xmlns="http://www.w3.org/2000/svg"><path d="M604.8 962.4c-10.4-0.8-20-8-23.2-18.4L473.6 552 79.2 441.6c-10.4-3.2-17.6-12-18.4-23.2-0.8-11.2 5.6-20.8 16-24.8L928 63.2c3.2-0.8 5.6-1.6 8.8-1.6 6.4 0 12.8 2.4 17.6 7.2 7.2 7.2 9.6 17.6 5.6 27.2L629.6 946.4c-4 9.6-12.8 16-23.2 16h-1.6z m-104-455.2c8.8 2.4 15.2 8.8 17.6 17.6l92 332.8 283.2-727.2-728 283.2 335.2 93.6z" fill="" /></svg>