<?xml version="1.0" encoding="iso-8859-1"?>
<!-- Uploaded to: SVG Repo, www.svgrepo.com, Generator: SVG Repo Mixer Tools -->
<!DOCTYPE svg PUBLIC "-//W3C//DTD SVG 1.1//EN" "http://www.w3.org/Graphics/SVG/1.1/DTD/svg11.dtd">
<svg fill="#000000" version="1.1" id="Capa_1" xmlns="http://www.w3.org/2000/svg" xmlns:xlink="http://www.w3.org/1999/xlink" 
	 width="800px" height="800px" viewBox="0 0 363.959 363.959"
	 xml:space="preserve">
<g>
	<path d="M313.023,144.162C305.492,64.601,238.406,2.134,156.914,2.134C70.391,2.134,0,72.527,0,159.046
		c0,53.751,26.667,102.617,71.601,131.709l0.286,62.225c0.018,3.625,2.231,6.876,5.595,8.213c1.066,0.424,2.182,0.632,3.284,0.632
		c2.381,0,4.715-0.963,6.424-2.748l43.324-45.336c8.7,1.475,17.557,2.221,26.4,2.221c16.276,0,31.953-2.56,46.721-7.19
		c16.861,13.244,38.086,21.173,61.141,21.173c4.973,0,9.951-0.375,14.854-1.109l25.178,26.349c1.707,1.787,4.041,2.741,6.422,2.741
		c1.105,0,2.219-0.199,3.285-0.625c3.363-1.343,5.578-4.598,5.594-8.214l0.164-36.108c27.451-18.499,43.688-48.865,43.688-82.207
		C363.957,193.583,343.379,161.137,313.023,144.162z M129.171,295.42c-2.99-0.624-6.076,0.374-8.181,2.566l-31.441,32.909
		l-0.207-45.112c-0.015-3.097-1.639-5.968-4.287-7.563c-42.136-25.465-67.292-70.012-67.292-119.174
		c0-76.726,62.421-139.149,139.15-139.149c68.872,0,126.163,50.323,137.179,116.112c-9.271-2.871-19.115-4.423-29.318-4.423
		c-54.686,0-99.177,44.496-99.177,99.183c0,24.234,8.754,46.465,23.25,63.708c-10.257,2.42-20.945,3.722-31.933,3.722
		C147.597,298.197,138.264,297.26,129.171,295.42z M306.816,300.494c-2.646,1.604-4.27,4.468-4.285,7.564L302.443,327l-13.25-13.869
		c-1.691-1.77-4.02-2.748-6.422-2.748c-0.586,0-1.172,0.061-1.758,0.181c-5.32,1.068-10.781,1.613-16.24,1.613
		c-44.891,0-81.412-36.524-81.412-81.409c0-44.894,36.521-81.42,81.412-81.42c44.896,0,81.42,36.526,81.42,81.42
		C346.193,259.529,331.473,285.594,306.816,300.494z"/>
</g>
</svg>